<svg xmlns="http://www.w3.org/2000/svg" viewBox="0 0 100 100">
  <rect width="100" height="100" rx="20" fill="#4F46E5"/>
  <!-- Paper -->
  <path d="M 30 50 L 30 20 L 70 20 L 70 50 Z" fill="#F9FAFB" />
  <!-- Text on paper -->
  <line x1="38" y1="30" x2="62" y2="30" stroke="#9CA3AF" stroke-width="3" stroke-linecap="round" />
  <line x1="38" y1="38" x2="55" y2="38" stroke="#9CA3AF" stroke-width="3" stroke-linecap="round" />
  <!-- Platen (roller) -->
  <rect x="25" y="45" width="50" height="12" rx="4" fill="#111827" />
  <!-- Base -->
  <path d="M 20 55 L 10 85 L 90 85 L 80 55 Z" fill="#374151" />
  <rect x="20" y="55" width="60" height="20" fill="#4B5563" />
  <!-- Keys -->
  <circle cx="30" cy="70" r="3" fill="#D1D5DB" />
  <circle cx="40" cy="70" r="3" fill="#D1D5DB" />
  <circle cx="50" cy="70" r="3" fill="#D1D5DB" />
  <circle cx="60" cy="70" r="3" fill="#D1D5DB" />
  <circle cx="70" cy="70" r="3" fill="#D1D5DB" />
  <circle cx="35" cy="78" r="3" fill="#D1D5DB" />
  <circle cx="45" cy="78" r="3" fill="#D1D5DB" />
  <circle cx="55" cy="78" r="3" fill="#D1D5DB" />
  <circle cx="65" cy="78" r="3" fill="#D1D5DB" />
  <!-- Carriage return lever -->
  <path d="M 72 50 L 82 50 L 82 35" fill="none" stroke="#D1D5DB" stroke-width="3" stroke-linecap="round" stroke-linejoin="round" />
</svg>
